<svg height='100px' width='100px'  fill="#555657" xmlns="http://www.w3.org/2000/svg" xmlns:xlink="http://www.w3.org/1999/xlink" version="1.1" x="0px" y="0px" viewBox="0 0 100 100" enable-background="new 0 0 100 100" xml:space="preserve"><path d="M84.292,20.729H15.708c-5.514,0-10,4.486-10,10v38.543c0,5.514,4.486,10,10,10h68.584c5.514,0,10-4.486,10-10V30.729  C94.292,25.215,89.806,20.729,84.292,20.729z M67.416,48.13l20.876-17.093v37.462L67.416,48.13z M11.708,68.499V31.037L32.584,48.13  L11.708,68.499z M15.917,26.729h68.166L50,54.636L15.917,26.729z M15.708,73.271c-0.093,0-0.181-0.021-0.272-0.027l21.819-21.29  L50,62.39l12.745-10.436l21.819,21.29c-0.092,0.006-0.18,0.027-0.272,0.027H15.708z"></path></svg>
